 <svg version="1.0" xmlns="http://www.w3.org/2000/svg" width="700.000000pt" height="633.000000pt" viewBox="0 0 700.000000 633.000000" preserveAspectRatio="xMidYMid meet">
<metadata>
Created by potrace 1.12, written by Peter Selinger 2001-2015
</metadata>
<g transform="translate(0.000000,633.000000) scale(0.100000,-0.100000)" fill="#000000" stroke="none">
<path d="M3666 5899 c-49 -58 -80 -230 -66 -361 27 -236 145 -429 455 -748
201 -208 260 -288 253 -348 -3 -23 -11 -30 -57 -44 -133 -43 -297 -46 -621
-13 -187 19 -357 19 -457 0 -44 -8 -146 -17 -229 -19 -236 -6 -446 -49 -659
-136 -278 -113 -337 -139 -407 -183 -133 -83 -214 -151 -496 -420 -63 -59
-137 -122 -165 -141 -74 -47 -145 -129 -223 -256 -37 -61 -83 -129 -104 -152
l-36 -41 -135 2 c-308 5 -447 -77 -405 -240 53 -204 362 -475 477 -419 15 7 7
-4 -19 -29 -26 -24 -75 -53 -124 -73 -170 -69 -210 -140 -338 -589 -32 -115
-74 -243 -92 -286 -32 -75 -33 -82 -32 -208 1 -137 16 -225 55 -316 74 -171
234 -117 354 121 15 30 58 145 96 256 97 290 151 384 267 473 123 95 222 121
467 127 197 4 235 12 343 70 81 44 136 85 297 223 114 97 141 115 220 146 50
20 171 80 270 134 99 54 216 112 260 128 250 96 807 212 1164 243 112 10 126
9 228 -14 109 -25 245 -46 428 -66 260 -30 391 -63 568 -147 160 -75 256 -109
345 -123 115 -19 184 18 197 103 11 73 -8 110 -107 213 -50 51 -87 97 -84 102
7 12 74 0 226 -40 264 -69 307 -78 374 -78 85 0 134 14 181 52 54 45 65 73 50
131 -15 58 -46 94 -94 107 -20 5 -86 10 -148 10 -111 0 -114 1 -225 46 -211
87 -254 102 -354 124 -54 11 -114 30 -131 40 l-33 19 0 -90 0 -90 -92 3 -93 3
-3 212 -2 212 -88 3 -87 3 0 65 0 65 270 0 270 0 3 -67 3 -68 -91 0 -90 0 0
-85 0 -86 31 36 c50 56 158 104 262 115 146 15 215 72 238 195 21 113 -16 285
-85 395 -18 30 -55 90 -81 134 -54 90 -180 223 -270 283 -93 62 -218 122 -350
167 l-120 42 -105 224 c-136 292 -175 366 -251 481 -85 126 -142 179 -253 233
-163 80 -299 98 -390 52 -27 -14 -54 -22 -62 -19 -7 2 -40 39 -73 82 -118 153
-173 182 -225 120z m-1748 -2301 l3 -68 -126 0 -125 0 0 -45 0 -45 105 0 105
0 0 -60 0 -60 -105 0 -105 0 0 -110 0 -110 -90 0 -90 0 0 285 0 285 213 -2
212 -3 3 -67z m535 39 c53 -32 101 -96 118 -162 16 -57 6 -181 -18 -235 -43
-98 -117 -142 -245 -148 -146 -7 -228 30 -283 129 -28 50 -30 62 -30 154 0 90
3 106 28 158 52 105 120 139 277 135 95 -3 110 -6 153 -31z m609 23 c20 -6 59
-31 86 -56 68 -60 87 -112 86 -229 -2 -101 -16 -143 -66 -200 -50 -58 -100
-78 -204 -83 -118 -6 -180 13 -239 73 -53 53 -75 115 -75 215 0 133 44 215
142 264 44 22 65 26 142 26 50 0 108 -5 128 -10z m446 -212 l2 -218 135 0 134
0 3 -32 c2 -18 1 -48 -1 -65 l-3 -33 -229 0 -229 0 0 278 c0 153 3 282 7 286
4 4 46 5 93 4 l85 -3 3 -217z m809 -53 c56 -148 102 -276 102 -282 1 -10 -23
-13 -89 -13 -90 0 -91 0 -100 28 -21 57 -21 57 -121 57 l-94 0 -13 -42 -14
-43 -94 0 -93 0 38 108 c21 59 50 136 64 172 46 116 97 258 97 268 0 17 21 21
120 19 l94 -2 103 -270z m591 252 c48 -26 72 -72 72 -135 0 -69 -23 -116 -69
-144 -20 -12 -38 -23 -40 -24 -2 -2 9 -14 24 -26 15 -13 51 -67 80 -119 l52
-94 -90 -3 c-50 -1 -96 -1 -102 2 -7 2 -33 45 -59 95 -26 50 -56 97 -69 106
-43 30 -47 22 -47 -95 l0 -110 -90 0 -90 0 0 286 0 286 198 -4 c166 -3 202 -6
230 -21z"></path>
<path d="M2233 3525 c-45 -19 -67 -66 -67 -145 0 -120 70 -181 165 -144 50 21
69 62 69 152 0 79 -19 114 -76 138 -41 17 -50 17 -91 -1z"></path>
<path d="M2890 3522 c-46 -23 -64 -62 -64 -142 0 -69 20 -122 52 -139 58 -31
142 -10 164 42 7 18 13 66 13 108 0 86 -13 110 -72 135 -42 18 -51 18 -93 -4z"></path>
<path d="M4085 3417 c-15 -48 -26 -89 -24 -91 5 -5 54 -9 86 -7 24 1 26 -10
-22 146 l-12 40 -28 -88z"></path>
<path d="M4668 3544 c-5 -4 -8 -32 -8 -62 l0 -55 56 6 c82 8 114 45 80 90 -15
19 -114 36 -128 21z"></path>
</g>
</svg>